<svg xmlns="http://www.w3.org/2000/svg" viewBox="0 0 79.31 79.31"><defs><style>.cls-1{fill:#fff;}</style></defs><title>Asset 2</title><g id="Layer_2" data-name="Layer 2"><g id="Layer_1-2" data-name="Layer 1"><path class="cls-1" d="M41.8,18.44V2.14a2.14,2.14,0,0,0-4.29,0V18.44a9.68,9.68,0,0,0,0,18.86V77.17a2.14,2.14,0,0,0,4.29,0V37.3a9.68,9.68,0,0,0,0-18.86ZM39.66,33.23A5.36,5.36,0,1,1,45,27.87,5.31,5.31,0,0,1,39.66,33.23Z"/><path class="cls-1" d="M67.52,57.66V77.17a2.14,2.14,0,0,0,4.29,0V57.66a9.68,9.68,0,0,0,0-18.86V2.14a2.14,2.14,0,0,0-4.29,0V38.8a9.68,9.68,0,0,0,0,18.86Zm2.14-14.79a5.36,5.36,0,1,1-5.36,5.36A5.31,5.31,0,0,1,69.67,42.87Z"/><path class="cls-1" d="M11.79,77.17V57.66a9.68,9.68,0,0,0,0-18.86V2.14a2.14,2.14,0,1,0-4.29,0V38.8a9.68,9.68,0,0,0,0,18.86V77.17a2.14,2.14,0,0,0,4.29,0ZM4.29,48.23a5.31,5.31,0,0,1,5.36-5.36,5.36,5.36,0,0,1,0,10.72A5.31,5.31,0,0,1,4.29,48.23Z"/></g></g></svg>