<svg xmlns="http://www.w3.org/2000/svg" viewBox="0 0 48.72 49.82"><defs><style>.cls-1{opacity:0.6;}.cls-2,.cls-3,.cls-4{fill:#fff;}.cls-2{opacity:0.5;}.cls-3{fill-rule:evenodd;}</style></defs><title>Asset 2</title><g id="Layer_2" data-name="Layer 2"><g id="Vert_Keylines" data-name="Vert Keylines"><g class="cls-1"><rect class="cls-2" x="9.36" width="3.73" height="9.33"/><rect class="cls-2" x="29.88" width="3.73" height="9.33"/><path class="cls-3" d="M41.08,5.6H33.62V9.33H29.88V5.6H13.09V9.33H9.36V5.6H1.9A1.87,1.87,0,0,0,0,7.46V11.2H42.95V7.46A1.87,1.87,0,0,0,41.08,5.6Z"/><path class="cls-3" d="M0,44.78a1.87,1.87,0,0,0,1.87,1.87H41a1.86,1.86,0,0,0,1.87-1.87V13.06H0Z"/></g><path class="cls-4" d="M36.4,25.19A12.32,12.32,0,1,0,48.72,37.5,12.31,12.31,0,0,0,36.4,25.19ZM43.79,40H38.86v4.93H33.94V40H29V35h4.93V30.12h4.93V35h4.93Z"/></g></g></svg>