<svg xmlns="http://www.w3.org/2000/svg" viewBox="0 0 27.2 27.81"><defs><style>.cls-1{opacity:0.6;}.cls-2,.cls-3,.cls-4{fill:#28abe2;}.cls-2{opacity:0.5;}.cls-3{fill-rule:evenodd;}</style></defs><title>Asset 3</title><g id="Layer_2" data-name="Layer 2"><g id="Vert_Keylines" data-name="Vert Keylines"><g class="cls-1"><rect class="cls-2" x="5.23" width="2.08" height="5.21"/><rect class="cls-2" x="16.68" width="2.08" height="5.21"/><path class="cls-3" d="M22.93,3.13H18.77V5.21H16.68V3.13H7.31V5.21H5.23V3.13H1.06a1,1,0,0,0-1,1V6.25H24V4.17A1,1,0,0,0,22.93,3.13Z"/><path class="cls-3" d="M0,25a1,1,0,0,0,1,1H22.92a1,1,0,0,0,1-1V7.29H0Z"/></g><path class="cls-4" d="M20.32,14.06a6.88,6.88,0,1,0,6.88,6.88A6.87,6.87,0,0,0,20.32,14.06Zm4.13,8.25H21.7v2.75H18.95V22.31H16.2V19.56h2.75V16.81H21.7v2.75h2.75Z"/></g></g></svg>