<svg xmlns="http://www.w3.org/2000/svg" viewBox="0 0 25 25"><defs><style>.cls-1,.cls-2{fill:#bbbdbf;}.cls-1{opacity:0.75;}</style></defs><title>Asset 7</title><g id="Layer_2" data-name="Layer 2"><g id="Layouts"><polygon class="cls-1" points="7.74 15.26 9.74 17.26 6.74 18.26 7.74 15.26"/><rect class="cls-2" x="15.14" y="7.2" width="2.48" height="2.83" transform="translate(-1.29 14.11) rotate(-45)"/><rect class="cls-2" x="7.45" y="11.71" width="8.86" height="2.83" transform="translate(-5.8 12.24) rotate(-45)"/><rect class="cls-1" x="14.9" y="8.33" width="0.71" height="2.83" transform="translate(-2.42 13.64) rotate(-45)"/><path class="cls-2" d="M12.5,0A12.5,12.5,0,1,0,25,12.5,12.5,12.5,0,0,0,12.5,0Zm0,23A10.55,10.55,0,1,1,23,12.5,10.55,10.55,0,0,1,12.5,23Z"/></g></g></svg>