<svg xmlns="http://www.w3.org/2000/svg" viewBox="0 0 16.66 19.45"><defs><style>.cls-1,.cls-2{fill:#fff;}.cls-1{stroke:#fff;stroke-miterlimit:10;stroke-width:2px;}</style></defs><title>Asset 9</title><g id="Layer_2" data-name="Layer 2"><g id="Layouts"><rect class="cls-1" x="1" y="5.54" width="14.66" height="12.91" rx="2" ry="2"/><path class="cls-2" d="M11.76,1.34h0a.92.92,0,0,1,.61.19.54.54,0,0,1,.16.43,1.85,1.85,0,0,1-.65,1.26,3.78,3.78,0,0,1-2.26,1,1.25,1.25,0,0,1-.31,0h0a2.79,2.79,0,0,1,1-2.17,2.29,2.29,0,0,1,1.5-.65m0-1.34A3.62,3.62,0,0,0,9.35,1c-1.22,1.14-1.93,3.23-1,4.12a1.79,1.79,0,0,0,1.24.41,5.11,5.11,0,0,0,3.18-1.32C14,3.07,14.23,1.43,13.28.55A2.19,2.19,0,0,0,11.76,0Z"/><path class="cls-2" d="M4.9,1.34A2.29,2.29,0,0,1,6.4,2a2.89,2.89,0,0,1,1,2.15.69.69,0,0,1-.34.05,3.77,3.77,0,0,1-2.26-1A1.85,1.85,0,0,1,4.13,2a.54.54,0,0,1,.16-.43.92.92,0,0,1,.61-.19M4.9,0A2.19,2.19,0,0,0,3.38.55c-.95.88-.73,2.52.49,3.66A5.11,5.11,0,0,0,7.05,5.54,1.79,1.79,0,0,0,8.3,5.13c.95-.88.24-3-1-4.12A3.62,3.62,0,0,0,4.9,0Z"/></g></g></svg>