<svg xmlns="http://www.w3.org/2000/svg" viewBox="0 0 21.95 20.27"><defs><style>.cls-1{fill:#fff;fill-rule:evenodd;}</style></defs><title>Asset 8</title><g id="Layer_2" data-name="Layer 2"><g id="Layouts"><path class="cls-1" d="M0,20.27H22s-.08-2.7-.19-3-.07-.74-.57-1.08a13,13,0,0,0-1.75-.88c-.68-.32-1.39-.58-2.09-.85s-1.29-.48-1.93-.73a3,3,0,0,1-1-.83,2,2,0,0,1-.32-.39c-.1-.19-.06-.37-.35-.32s-.21-.55-.21-.55a1.2,1.2,0,0,0,.47-.57c.1-.34.28-1.66.28-1.66a.49.49,0,0,0,.36-.08c.18-.11.43-.45.62-2.56,0-.44-.23-.23-.23-.25a25.22,25.22,0,0,0,.14-3,2.26,2.26,0,0,0-.32-1.11c-.2-.3-.37-.63-.58-.92a2.08,2.08,0,0,0-.56-.53A6.1,6.1,0,0,0,10.34,0a2.5,2.5,0,0,0-.71.14,2.53,2.53,0,0,0-.75.34,1.24,1.24,0,0,0-.4.33c-.1.13-.18.25-.36.26-.82,0-.95.83-1.2,1.45a1.9,1.9,0,0,0-.19,1c0,.27.08.42.14,1s0,.82.09,1.23c0,.14.08.27.11.41s-.11.11-.2.29A4.71,4.71,0,0,0,7,8c.12.42.13,1,.31,1.19s.21.08.41.15,0,0,.15.38.08.75.21,1.22c.18.68.49.42.57.79s-.07.38-.07.38a.88.88,0,0,0-.47.07c-.21.13-.34.53-.45.74s-.22.55-.47.68a18,18,0,0,1-1.93.73c-.58.22-1.17.43-1.75.67-.18.07-.38.14-.55.24-.5.27-1.38.53-1.82.83s-.93.88-.93,1.26-.19,3-.19,3"/></g></g></svg>