<svg xmlns="http://www.w3.org/2000/svg" viewBox="0 0 41.42 31.66"><defs><style>.cls-1{fill:#fff;}</style></defs><title>Asset 13</title><g id="Layer_2" data-name="Layer 2"><g id="Layouts"><g id="spec_header"><path class="cls-1" d="M37.23,0H25.31a1.6,1.6,0,0,0-1.6,1.6,1.49,1.49,0,0,0,.19.76l6,10.36a1.6,1.6,0,0,0,2.77,0l6-10.36a1.5,1.5,0,0,0,.19-.76A1.6,1.6,0,0,0,37.23,0Z"/><path class="cls-1" d="M39.68.87A.87.87,0,0,1,40.55,0h0a.87.87,0,0,1,.87.87h0a.87.87,0,0,1-.87.87h0a.87.87,0,0,1-.87-.87Zm.18,0a.69.69,0,0,0,.69.69h0a.69.69,0,0,0,.69-.69h0a.69.69,0,0,0-.69-.69h0a.69.69,0,0,0-.69.69Z"/><path class="cls-1" d="M40.88,1.31h-.08a.08.08,0,0,1-.07,0L40.49,1h-.06v.28s0,0,0,0h-.06s-.05,0-.05,0V.48s0,0,.05,0h.25c.14,0,.17,0,.23.06a.35.35,0,0,1,.07.25c0,.15-.06.23-.19.24l.22.27S40.92,1.31,40.88,1.31ZM40.67.57a1.14,1.14,0,0,0-.24,0V.85h.17c.06,0,.09,0,.1,0a.15.15,0,0,0,0-.1C40.71.63,40.7.59,40.67.57Z"/><path class="cls-1" d="M18.67,14.72h0Zm10.5.2-.07-.11L21.7,2l-.13-.22A3.62,3.62,0,0,0,18.41,0H12.3a1.23,1.23,0,0,0-1.23,1.23,1.17,1.17,0,0,0,.15.58l7.45,12.9a3.91,3.91,0,0,1,0,3.9L12.22,29.84a1.16,1.16,0,0,0-.15.58,1.23,1.23,0,0,0,1.23,1.23h6.26a3.62,3.62,0,0,0,3.17-1.76l.13-.22,6.23-10.79.12-.2a3.67,3.67,0,0,0,.46-1.85A3.83,3.83,0,0,0,29.17,14.92Z"/><path class="cls-1" d="M12,20.13a1.88,1.88,0,0,0-.33.07,5.42,5.42,0,0,1-1.16.15,1.53,1.53,0,0,1-.57-.1c-.29-.13-.32-.5-.31-1h2.31c.33,0,.4-.06.4-.58A2.9,2.9,0,0,0,12,17.06a1.72,1.72,0,0,0-1.54-.59,1.85,1.85,0,0,0-1.64.63,3.06,3.06,0,0,0-.38,1.81,2.52,2.52,0,0,0,.53,1.93,2.2,2.2,0,0,0,1.54.44,8.54,8.54,0,0,0,1.43-.12c.29,0,.34-.2.34-.42a1.64,1.64,0,0,0,0-.31C12.19,20.3,12.11,20.13,12,20.13ZM9.59,18.35c0-.69.14-.93.82-.93s.73.25.73.83v.18H9.59ZM6.21,16.47a3,3,0,0,0-1.28.32V15a.36.36,0,0,0-.37-.41H4.13c-.27,0-.42.09-.42.41v5.74c0,.23.08.38.34.38h.5c.29,0,.37-.16.37-.43V18.56c0-.68.14-.91.81-.91s.72.24.72.82v.18h0q0,.14,0,.31v1.78c0,.28.09.43.34.43h.5c.29,0,.37-.16.37-.43V17.82A1.27,1.27,0,0,0,6.21,16.47Z"/><path class="cls-1" d="M2.73,17.61h-1v1.91a2,2,0,0,0,.06.69.15.15,0,0,0,.14.08c.27,0,.56-.14.78-.14a.24.24,0,0,1,.26.26v.34c0,.35-.09.45-.4.47a7.88,7.88,0,0,1-.82,0c-1,0-1.22-.37-1.22-1.5V17.61H.23c-.18,0-.23-.12-.23-.27v-.41c0-.24.09-.31.26-.31H.49v-.77c0-.32.13-.42.41-.42h.43a.37.37,0,0,1,.38.42v.77h.93c.21,0,.32,0,.32.3v.33C3,17.57,2.9,17.61,2.73,17.61Z"/><path class="cls-1" d="M25,28.67l.73,1.23.69.4a.14.14,0,0,1,.06.22l-.08.14c-.06.11-.12.14-.23.07l-.66-.38-1.51,0a.21.21,0,0,1-.11,0,.13.13,0,0,1,0-.18l.1-.17a.18.18,0,0,1,.19-.11l1,0-.53-.9a.17.17,0,0,1,0-.21l.08-.14a.12.12,0,0,1,.18-.06A.35.35,0,0,1,25,28.67Z"/><path class="cls-1" d="M28.26,27.49l-.08.13c-.05.1-.12.1-.22.06L26.62,27l.2.22c.24.28.5.58.66.77a.19.19,0,0,1,0,.25l0,.08a.18.18,0,0,1-.22.1l-1-.18-.29-.06,1.25.83c.09.06.11.12.06.22l-.08.13c-.06.1-.12.15-.24.07l-1.77-1.24c-.11-.08-.08-.15,0-.23l.1-.18a.17.17,0,0,1,.19-.11c.36.05,1,.18,1.49.26-.32-.38-.74-.87-1-1.16a.17.17,0,0,1,0-.22l.1-.18c0-.08.1-.14.22-.08l2,.91C28.33,27.31,28.32,27.39,28.26,27.49Z"/><path class="cls-1" d="M29.27,25.82c-.07.14-.11.23-.19.37a1.93,1.93,0,0,1-.26.36c-.37.38-.81.26-1.36-.06-.94-.54-.94-.94-.58-1.56.09-.15.14-.22.23-.36s.14-.14.21-.1l.1.06c.12.07.14.11.08.21s-.12.17-.21.34a1.25,1.25,0,0,0-.16.37c0,.24.22.39.59.6s.65.35.87.1a1.87,1.87,0,0,0,.16-.24c.1-.17.11-.24.18-.36s.11-.1.22,0l.1.06C29.32,25.63,29.33,25.68,29.27,25.82Z"/><path class="cls-1" d="M30.44,23.73l-.1.18a.16.16,0,0,1-.2.09l-.48-.09-.22.38-.21.37.3.35c.07.08.1.13,0,.24l-.08.15c-.06.11-.1.11-.15.08l-.08-.08L27.8,23.67a.19.19,0,0,1,0-.27l.08-.13a.2.2,0,0,1,.25-.11l2.26.39.06,0C30.49,23.6,30.47,23.68,30.44,23.73Zm-2.08-.08.61.69.14-.25.15-.26Z"/></g></g></g></svg>