<svg xmlns="http://www.w3.org/2000/svg" viewBox="0 0 21.18 23.02"><defs><style>.cls-1,.cls-2{fill:#fff;}.cls-1{opacity:0.5;}.cls-2{fill-rule:evenodd;}</style></defs><title>Asset 4</title><g id="Layer_2" data-name="Layer 2"><g id="Layouts"><rect class="cls-1" x="4.6" width="1.84" height="4.6"/><rect class="cls-1" x="14.73" width="1.84" height="4.6"/><path class="cls-2" d="M20.26,2.76H16.57V4.6H14.73V2.76H6.44V4.6H4.6V2.76H.92A.92.92,0,0,0,0,3.68V5.52H21.18V3.68A.92.92,0,0,0,20.26,2.76Z"/><path class="cls-2" d="M0,22.1A.92.92,0,0,0,.92,23H20.26a.92.92,0,0,0,.92-.92V6.44H0ZM15.65,8.29h3.68V12H15.65Zm0,4.6h3.68v3.68H15.65Zm0,4.6h3.68v3.68H15.65ZM11,8.29h3.68V12H11Zm0,4.6h3.68v3.68H11Zm0,4.6h3.68v3.68H11ZM6.44,8.29h3.68V12H6.44Zm0,4.6h3.68v3.68H6.44Zm0,4.6h3.68v3.68H6.44ZM1.84,8.29H5.52V12H1.84Zm0,4.6H5.52v3.68H1.84Zm0,4.6H5.52v3.68H1.84Z"/></g></g></svg>